<svg width="128" height="128" viewBox="0 0 128 128" xmlns="http://www.w3.org/2000/svg">
  <defs>
    <linearGradient id="mainGradient" x1="0%" y1="0%" x2="100%" y2="100%">
      <stop offset="0%" style="stop-color:#667eea;stop-opacity:1" />
      <stop offset="100%" style="stop-color:#764ba2;stop-opacity:1" />
    </linearGradient>
    <linearGradient id="accentGradient" x1="0%" y1="0%" x2="100%" y2="100%">
      <stop offset="0%" style="stop-color:#60a5fa;stop-opacity:1" />
      <stop offset="100%" style="stop-color:#3b82f6;stop-opacity:1" />
    </linearGradient>
  </defs>
  
  <!-- Background -->
  <rect width="128" height="128" rx="28" fill="url(#mainGradient)"/>
  
  <!-- Modern pen icon - simplified geometric shape -->
  <g transform="translate(64, 64) rotate(-25)">
    <!-- Pen body - clean rounded rectangle -->
    <rect x="-6" y="-32" width="12" height="48" rx="6" fill="white" opacity="0.95"/>
    
    <!-- Pen tip - triangle -->
    <path d="M -6 16 L 0 28 L 6 16 Z" fill="white" opacity="0.95"/>
    
    <!-- Pen clip - minimal line -->
    <rect x="-2" y="-28" width="4" height="12" rx="2" fill="url(#accentGradient)"/>
    
    <!-- AI sparkle - modern star burst -->
    <g transform="translate(22, -20)">
      <circle cx="0" cy="0" r="2" fill="#fbbf24"/>
      <line x1="0" y1="-6" x2="0" y2="6" stroke="#fbbf24" stroke-width="2" stroke-linecap="round"/>
      <line x1="-6" y1="0" x2="6" y2="0" stroke="#fbbf24" stroke-width="2" stroke-linecap="round"/>
      <line x1="-4" y1="-4" x2="4" y2="4" stroke="#fbbf24" stroke-width="1.5" stroke-linecap="round" opacity="0.7"/>
      <line x1="4" y1="-4" x2="-4" y2="4" stroke="#fbbf24" stroke-width="1.5" stroke-linecap="round" opacity="0.7"/>
    </g>
  </g>
  
  <!-- Writing line - subtle curve -->
  <path d="M 28 88 Q 40 86 52 88 Q 64 90 76 88" 
        stroke="white" 
        stroke-width="2.5" 
        stroke-linecap="round" 
        fill="none" 
        opacity="0.4"/>
</svg>
