<svg width="128" height="128" viewBox="0 0 128 128" xmlns="http://www.w3.org/2000/svg">
  <defs>
    <!-- Material Design blue background -->
    <linearGradient id="bgGradient" x1="0%" y1="0%" x2="100%" y2="100%">
      <stop offset="0%" style="stop-color:#1976d2;stop-opacity:1" />
      <stop offset="100%" style="stop-color:#1565c0;stop-opacity:1" />
    </linearGradient>
    <!-- Subtle shadow -->
    <filter id="shadow" x="-50%" y="-50%" width="200%" height="200%">
      <feGaussianBlur in="SourceAlpha" stdDeviation="1.5"/>
      <feOffset dx="0" dy="1" result="offsetblur"/>
      <feComponentTransfer>
        <feFuncA type="linear" slope="0.2"/>
      </feComponentTransfer>
      <feMerge>
        <feMergeNode/>
        <feMergeNode in="SourceGraphic"/>
      </feMerge>
    </filter>
  </defs>
  
  <!-- Material Design rounded background -->
  <rect width="128" height="128" rx="28" fill="url(#bgGradient)"/>
  
  <!-- White pen icon - Material Design style -->
  <g transform="translate(64, 64) rotate(-40)" filter="url(#shadow)">
    <!-- Pen body -->
    <rect x="-6" y="-32" width="12" height="50" rx="6" fill="white"/>
    
    <!-- Pen tip -->
    <path d="M -6 18 L 0 32 L 6 18 Z" fill="white"/>
    <path d="M -3 18 L 0 26 L 3 18 Z" fill="#e3f2fd"/>
    
    <!-- Pen clip -->
    <rect x="-2" y="-28" width="4" height="14" rx="2" fill="#bbdefb"/>
    <circle cx="0" cy="-29" r="2.5" fill="#bbdefb"/>
  </g>
  
  <!-- AI sparkle accent - white -->
  <g transform="translate(82, 42)">
    <circle cx="0" cy="0" r="2.5" fill="white"/>
    <line x1="0" y1="-8" x2="0" y2="8" stroke="white" stroke-width="2" stroke-linecap="round"/>
    <line x1="-8" y1="0" x2="8" y2="0" stroke="white" stroke-width="2" stroke-linecap="round"/>
    <line x1="-5.5" y1="-5.5" x2="5.5" y2="5.5" stroke="white" stroke-width="1.5" stroke-linecap="round" opacity="0.7"/>
    <line x1="5.5" y1="-5.5" x2="-5.5" y2="5.5" stroke="white" stroke-width="1.5" stroke-linecap="round" opacity="0.7"/>
  </g>
  
  <!-- Writing line accent -->
  <path d="M 32 92 Q 48 90 64 92 Q 80 94 96 92" 
        stroke="white" 
        stroke-width="2.5" 
        stroke-linecap="round" 
        fill="none" 
        opacity="0.4"/>
</svg>
